<svg xmlns="http://www.w3.org/2000/svg" version="1.1" xmlns:xlink="http://www.w3.org/1999/xlink" xmlns:svgjs="http://svgjs.com/svgjs" width="1440" height="560" preserveAspectRatio="none" viewBox="0 0 1440 560"><g mask="url(&quot;#SvgjsMask1006&quot;)" fill="none"><rect width="1440" height="560" x="0" y="0" fill="rgba(1, 16, 32, 1)"></rect><path d="M1328 449L1327 260" stroke-width="6" stroke="url(#SvgjsLinearGradient1007)" stroke-linecap="round" class="Down"></path><path d="M1087 223L1086 -193" stroke-width="10" stroke="url(#SvgjsLinearGradient1007)" stroke-linecap="round" class="Down"></path><path d="M544 409L543 711" stroke-width="8" stroke="url(#SvgjsLinearGradient1008)" stroke-linecap="round" class="Up"></path><path d="M253 512L252 102" stroke-width="8" stroke="url(#SvgjsLinearGradient1008)" stroke-linecap="round" class="Up"></path><path d="M511 540L510 867" stroke-width="10" stroke="url(#SvgjsLinearGradient1008)" stroke-linecap="round" class="Up"></path><path d="M6 337L5 743" stroke-width="10" stroke="url(#SvgjsLinearGradient1007)" stroke-linecap="round" class="Down"></path><path d="M826 394L825 186" stroke-width="8" stroke="url(#SvgjsLinearGradient1008)" stroke-linecap="round" class="Up"></path><path d="M1023 27L1022 -305" stroke-width="8" stroke="url(#SvgjsLinearGradient1008)" stroke-linecap="round" class="Up"></path><path d="M1333 149L1332 -1" stroke-width="10" stroke="url(#SvgjsLinearGradient1008)" stroke-linecap="round" class="Up"></path><path d="M468 35L467 -194" stroke-width="10" stroke="url(#SvgjsLinearGradient1008)" stroke-linecap="round" class="Up"></path><path d="M1221 126L1220 425" stroke-width="6" stroke="url(#SvgjsLinearGradient1007)" stroke-linecap="round" class="Down"></path><path d="M446 451L445 681" stroke-width="10" stroke="url(#SvgjsLinearGradient1007)" stroke-linecap="round" class="Down"></path><path d="M1239 361L1238 741" stroke-width="6" stroke="url(#SvgjsLinearGradient1008)" stroke-linecap="round" class="Up"></path><path d="M1106 493L1105 727" stroke-width="8" stroke="url(#SvgjsLinearGradient1007)" stroke-linecap="round" class="Down"></path><path d="M212 89L211 -72" stroke-width="6" stroke="url(#SvgjsLinearGradient1008)" stroke-linecap="round" class="Up"></path><path d="M916 427L915 277" stroke-width="6" stroke="url(#SvgjsLinearGradient1008)" stroke-linecap="round" class="Up"></path><path d="M754 379L753 152" stroke-width="10" stroke="url(#SvgjsLinearGradient1007)" stroke-linecap="round" class="Down"></path><path d="M9 28L8 437" stroke-width="10" stroke="url(#SvgjsLinearGradient1008)" stroke-linecap="round" class="Up"></path><path d="M39 228L38 499" stroke-width="10" stroke="url(#SvgjsLinearGradient1008)" stroke-linecap="round" class="Up"></path><path d="M1058 75L1057 -324" stroke-width="6" stroke="url(#SvgjsLinearGradient1007)" stroke-linecap="round" class="Down"></path><path d="M848 499L847 677" stroke-width="6" stroke="url(#SvgjsLinearGradient1008)" stroke-linecap="round" class="Up"></path><path d="M169 21L168 -174" stroke-width="8" stroke="url(#SvgjsLinearGradient1008)" stroke-linecap="round" class="Up"></path><path d="M1085 415L1084 827" stroke-width="8" stroke="url(#SvgjsLinearGradient1007)" stroke-linecap="round" class="Down"></path><path d="M776 75L775 442" stroke-width="8" stroke="url(#SvgjsLinearGradient1008)" stroke-linecap="round" class="Up"></path><path d="M109 482L108 831" stroke-width="10" stroke="url(#SvgjsLinearGradient1007)" stroke-linecap="round" class="Down"></path><path d="M855 257L854 -153" stroke-width="8" stroke="url(#SvgjsLinearGradient1008)" stroke-linecap="round" class="Up"></path><path d="M416 26L415 187" stroke-width="10" stroke="url(#SvgjsLinearGradient1008)" stroke-linecap="round" class="Up"></path><path d="M1115 399L1114 711" stroke-width="8" stroke="url(#SvgjsLinearGradient1007)" stroke-linecap="round" class="Down"></path><path d="M1251 56L1250 274" stroke-width="6" stroke="url(#SvgjsLinearGradient1008)" stroke-linecap="round" class="Up"></path><path d="M1049 480L1048 625" stroke-width="10" stroke="url(#SvgjsLinearGradient1008)" stroke-linecap="round" class="Up"></path><path d="M1405 1L1404 -298" stroke-width="10" stroke="url(#SvgjsLinearGradient1007)" stroke-linecap="round" class="Down"></path><path d="M1429 389L1428 659" stroke-width="10" stroke="url(#SvgjsLinearGradient1008)" stroke-linecap="round" class="Up"></path><path d="M588 378L587 693" stroke-width="10" stroke="url(#SvgjsLinearGradient1008)" stroke-linecap="round" class="Up"></path><path d="M778 416L777 563" stroke-width="6" stroke="url(#SvgjsLinearGradient1007)" stroke-linecap="round" class="Down"></path><path d="M1031 206L1030 460" stroke-width="10" stroke="url(#SvgjsLinearGradient1007)" stroke-linecap="round" class="Down"></path><path d="M802 329L801 726" stroke-width="8" stroke="url(#SvgjsLinearGradient1008)" stroke-linecap="round" class="Up"></path></g><defs><mask id="SvgjsMask1006"><rect width="1440" height="560" fill="#ffffff"></rect></mask><linearGradient x1="0%" y1="0%" x2="0%" y2="100%" id="SvgjsLinearGradient1007"><stop stop-color="rgba(28, 83, 142, 0)" offset="0"></stop><stop stop-color="#1c538e" offset="1"></stop></linearGradient><linearGradient x1="0%" y1="100%" x2="0%" y2="0%" id="SvgjsLinearGradient1008"><stop stop-color="rgba(28, 83, 142, 0)" offset="0"></stop><stop stop-color="#1c538e" offset="1"></stop></linearGradient></defs></svg>